# xmcd CD database file
#
# Track frame offsets:
#	150
#	21325
#	38752
#
# Disc length: 797 seconds
#
# Revision: 1
# Processed by: cddbd v1.5.1PL0 Copyright (c) Steve Scherf et al.
# Submitted via: CDex 1.51
#
DISCID=1c031b03
DTITLE=MY LITTLE LOVER Featuring Akko - Animal Life
DYEAR=1997
DGENRE=Pop
TTITLE0=Animal Life
TTITLE1=雨の音
TTITLE2=Animal Life (Instrumental)
EXTD=YEAR: 1997
EXTT0=
EXTT1=
EXTT2=
PLAYORDER=
